<svg height="512" viewBox="0 0 64 64" width="512" xmlns="http://www.w3.org/2000/svg"><path d="m61 21a18 18 0 0 1 -16.01 17.89 18.662 18.662 0 0 1 -1.99.11 18 18 0 1 1 18-18z" fill="#57a4ff"/><path d="m51 25v6a2.006 2.006 0 0 1 -2 2h-12a2.006 2.006 0 0 1 -2-2v-18a2.006 2.006 0 0 1 2-2h3v2h6v-2h3a2.006 2.006 0 0 1 2 2z" fill="#fee9ab"/><path d="m46 11v2h-6v-2-2h6z" fill="#ff7956"/><path d="m45 39v14a2.006 2.006 0 0 1 -2 2h-38a2.006 2.006 0 0 1 -2-2v-14a2.006 2.006 0 0 1 2-2h29.76a17.849 17.849 0 0 0 8.24 2 18.662 18.662 0 0 0 1.99-.11.375.375 0 0 1 .01.11z" fill="#ff7956"/><path d="m41 55v3a3 3 0 0 1 -6 0v-3z" fill="#9cdd05"/><circle cx="35" cy="46" fill="#ffcd00" r="4"/><path d="m34.76 37h-16.76a4 4 0 0 0 -8 0h-3l.5-4 .5-4 .78-6.25a2.007 2.007 0 0 1 1.99-1.75h14.23a17.983 17.983 0 0 0 9.76 16z" fill="#46f8ff"/><path d="m18 37h-8a4 4 0 0 1 8 0z" fill="#46f8ff"/><circle cx="13" cy="46" fill="#ffcd00" r="4"/><path d="m13 55v3a3 3 0 0 1 -6 0v-3z" fill="#9cdd05"/><path d="m8 29-.5 4h-2.5a2.006 2.006 0 0 1 -2-2 2.015 2.015 0 0 1 2-2z" fill="#b2fa09"/><path d="m13 41a5 5 0 1 0 5 5 5.006 5.006 0 0 0 -5-5zm0 8a3 3 0 1 1 3-3 3 3 0 0 1 -3 3z"/><path d="m35 41a5 5 0 1 0 5 5 5.006 5.006 0 0 0 -5-5zm0 8a3 3 0 1 1 3-3 3 3 0 0 1 -3 3z"/><path d="m62 21a18.987 18.987 0 0 0 -37.949-1h-13.285a3 3 0 0 0 -2.977 2.628l-.672 5.372h-2.117a3.017 3.017 0 0 0 -3 3 3 3 0 0 0 3 3h1.367l-.25 2h-1.117a3 3 0 0 0 -3 3v14a3 3 0 0 0 3 3h1v2a4 4 0 0 0 8 0v-2h20v2a4 4 0 0 0 8 0v-2h1a3 3 0 0 0 3-3v-13.261a19.012 19.012 0 0 0 16-18.739zm-57 11a1 1 0 0 1 -1-1 .978.978 0 0 1 .306-.712.957.957 0 0 1 .694-.288h1.867l-.25 2zm4.773-9.124a1 1 0 0 1 .993-.876h13.285a18.955 18.955 0 0 0 7.33 14h-12.481a5 5 0 0 0 -9.8 0h-.967zm7.043 13.124h-5.632a2.982 2.982 0 0 1 5.632 0zm-4.816 22a2 2 0 0 1 -4 0v-2h4zm28 0a2 2 0 0 1 -4 0v-2h4zm4-5a1 1 0 0 1 -1 1h-38a1 1 0 0 1 -1-1v-14a1 1 0 0 1 1-1h29.566a18.855 18.855 0 0 0 8.434 2c.338 0 .667-.033 1-.051zm-1-15a17 17 0 1 1 17-17 17.019 17.019 0 0 1 -17 17z"/><path d="m20 43h2v2h-2z"/><path d="m26 43h2v2h-2z"/><path d="m20 47h2v2h-2z"/><path d="m26 47h2v2h-2z"/><path d="m54.778 19.808-2.778 2.778v-9.586a3 3 0 0 0 -3-3h-2v-1a1 1 0 0 0 -1-1h-6a1 1 0 0 0 -1 1v1h-2a3 3 0 0 0 -3 3v18a3 3 0 0 0 3 3h12a3 3 0 0 0 3-3v-5.586l4.192-4.192zm-13.778-9.808h4v2h-4zm9 21a1 1 0 0 1 -1 1h-12a1 1 0 0 1 -1-1v-18a1 1 0 0 1 1-1h2v1a1 1 0 0 0 1 1h6a1 1 0 0 0 1-1v-1h2a1 1 0 0 1 1 1v11.586l-3 3-2.121-2.122-1.414 1.414 2.828 2.829a1 1 0 0 0 1.414 0l2.293-2.293z"/><path d="m38 16h2v2h-2z"/><path d="m42 16h6v2h-6z"/><path d="m38 20h2v2h-2z"/><path d="m42 20h6v2h-6z"/><path d="m38 24h2v2h-2z"/><path d="m38 28h2v2h-2z"/></svg>