<svg id="Capa_1" enable-background="new 0 0 496.63 496.63" height="512" viewBox="0 0 496.63 496.63" width="512" xmlns="http://www.w3.org/2000/svg"><g><g><path d="m414.625 376.272 26.231-99.609 10.787-36.077-27.719-8.484-10.401 34.495-24.209 91.93-18.083 59.899 30.738 10.154z" fill="#e5e1e5"/></g><g><path d="m91.167 266.597 30.942 116.814 13.221 40.555-28.692 10.495-16.573-58.189-26.231-99.609-7.887-30.963 28.683-6.942z" fill="#e5e1e5"/></g><path d="m62.235 13.08v58.7c0 11.62 9.41 21.03 21.02 21.03h6.878l5.506-10.581h312.644l-1.78 10.581h15.932c11.61 0 21.02-9.41 21.02-21.03v-58.7z" fill="#fd8087"/><g fill="#e5e1e5"><path d="m411.558 128.384 32.02 86.834 6.597 18.03-24.411 16.959-10.286-27.386-34.824-94.437-9.107-22.329 29.806-8.479z"/><path d="m237.847 101.911h28.995v244.047h-28.995z"/><path d="m124.035 128.384-34.823 94.437-7.864 27.353-30.161-9.812 9.924-25.144 32.021-86.834 8.929-26.473 31.615 5.088z"/></g><g fill="#b5adb6"><path d="m282.292 79.808h-60.895v38.077c0 5.798 4.701 10.499 10.499 10.499h39.897c5.798 0 10.499-4.701 10.499-10.499z"/><path d="m139.149 79.808h-60.895v38.077c0 5.798 4.701 10.499 10.499 10.499h39.897c5.798 0 10.499-4.701 10.499-10.499z"/><path d="m364.541 79.808h60.895v38.077c0 5.798-4.701 10.499-10.499 10.499h-39.897c-5.799 0-10.499-4.701-10.499-10.499z"/></g><g fill="#a79ba7"><path d="m257.805 116.108c-8.72 0-15.789-7.069-15.789-15.789v-20.511h-20.618v38.077c0 5.799 4.701 10.499 10.499 10.499h39.896c5.798 0 10.499-4.701 10.499-10.499v-1.777z"/><path d="m114.886 116.108c-8.844 0-16.014-7.17-16.014-16.014v-20.286h-20.618v38.077c0 5.799 4.701 10.499 10.499 10.499h39.896c5.799 0 10.499-4.701 10.499-10.499v-1.777z"/><path d="m400.327 116.108c-8.377 0-15.168-6.791-15.168-15.168v-21.132h-20.618v38.077c0 5.799 4.701 10.499 10.499 10.499h39.896c5.799 0 10.499-4.701 10.499-10.499v-1.777z"/></g><g><circle cx="252.345" cy="230.939" fill="#b5adb6" r="31.241"/><path d="m240.426 230.939c0-13.881 9.075-25.643 21.599-29.713-3.043-.989-6.307-1.529-9.68-1.529-17.254 0-31.241 13.987-31.241 31.241s13.987 31.241 31.241 31.241c3.373 0 6.637-.54 9.68-1.529-12.524-4.068-21.599-15.83-21.599-29.711z" fill="#a79ba7"/><g><path d="m252.345 240.328c-4.143 0-7.5-3.358-7.5-7.5v-2.889c0-4.142 3.357-7.5 7.5-7.5s7.5 3.358 7.5 7.5v2.889c0 4.142-3.358 7.5-7.5 7.5z" fill="#cbc4cc"/></g><circle cx="436.742" cy="245.7" fill="#b5adb6" r="31.241"/><path d="m426.093 245.7c0-13.645 8.769-25.243 20.963-29.499-3.225-1.126-6.704-1.742-10.313-1.742-17.254 0-31.241 13.987-31.241 31.241s13.987 31.241 31.241 31.241c3.609 0 7.085-.615 10.31-1.741-12.195-4.256-20.96-15.855-20.96-29.5z" fill="#a79ba7"/><g><path d="m436.742 255.089c-4.143 0-7.5-3.358-7.5-7.5v-2.889c0-4.142 3.357-7.5 7.5-7.5s7.5 3.358 7.5 7.5v2.889c0 4.142-3.357 7.5-7.5 7.5z" fill="#cbc4cc"/></g><circle cx="67.947" cy="245.7" fill="#b5adb6" r="31.241"/><path d="m55.947 245.7c0-13.896 9.081-25.671 21.626-29.729-3.031-.98-6.268-1.513-9.626-1.513-17.254 0-31.241 13.987-31.241 31.241s13.987 31.241 31.241 31.241c3.358 0 6.605-.534 9.636-1.514-12.545-4.057-21.636-15.83-21.636-29.726z" fill="#a79ba7"/><g><path d="m67.947 255.089c-4.143 0-7.5-3.358-7.5-7.5v-2.889c0-4.142 3.357-7.5 7.5-7.5s7.5 3.358 7.5 7.5v2.889c0 4.142-3.357 7.5-7.5 7.5z" fill="#cbc4cc"/></g><g id="XMLID_162_"><g><path d="m128.513 71.552c-11.61 0-21.02-9.41-21.02-21.03v-37.442h-45.258v58.7c0 11.62 9.41 21.03 21.02 21.03h23.88l11.489-10.181 37.941 2.774 2.521 7.407h51.95l11.574-12.308 35.082 2.547 5.293 9.761h51.96l13.511-11.672 36.086 1.283 2.354 10.389h55.54c11.61 0 21.02-9.41 21.02-21.03v-.227h-314.943z" fill="#fe646f"/><path d="m189.985 31.08-30.9 61.73h-51.95l30.9-61.73z" fill="#f3f0f3"/></g></g></g><path d="m416.696 376.265h-16.74c-2.63 0-4.97-1.66-5.84-4.13l-11.63-32.99c-8.53-24.2-31.4-40.38-57.05-40.38h-93.21c-19.96 0-38.63 9.84-49.91 26.31l-38.1 55.64c-1.16 1.68-3.07 2.69-5.12 2.69h-66.372l-1.922 6.931-18.5 24.29-4.17 64.751-8.708 1.233 1.045 1.289h47.649l15.013-13.925 8.706-2.568c7.66-7.18 17.94-11.57 29.25-11.57s21.6 4.39 29.25 11.57l33.832 7.478h94.954l19.934-7.048c7.7-7.43 18.17-12 29.71-12 11.31 0 21.6 4.39 29.25 11.57l49.364 7.586 30.982-5.576.873-41.034 6.14-17.862c-8.028-18.955-26.802-32.255-48.68-32.255z" fill="#fee97d"/><g><path d="m69.266 440.784c.222-20.944 17.266-37.8 38.211-37.8h77.418c2.05 0 3.96-1.01 5.12-2.69l38.1-55.64c11.28-16.47 29.95-26.31 49.91-26.31l91.969.003c-11.224-12.211-27.264-19.577-44.559-19.577h-93.21c-19.96 0-38.63 9.84-49.91 26.31l-38.1 55.64c-1.16 1.68-3.07 2.69-5.12 2.69h-70.45c-5.23 0-10.18 2.3-13.56 6.28l-11.91 14.05 7.83 22.338-23.91 6.162v33.17l13.373 16.493h28.559c-.023-12.075.093-27.281.239-41.119z" fill="#fee45a"/></g><path d="m277.606 334.894-4.592-6.124h-40.79c-10.07 0-19.47 4.95-25.16 13.26l-21.11 30.82c-.99 1.45.05 3.42 1.81 3.42h92.75v-43.087z" fill="#c8effe"/><path d="m228.117 344.65c4.341-6.338 9.779-11.689 15.96-15.88h-11.852c-10.07 0-19.47 4.95-25.16 13.26l-21.11 30.82c-.99 1.45.05 3.42 1.81 3.42h18.7z" fill="#99e6fc"/><path d="m362.735 373.359-8.55-24.24c-4.29-12.2-15.82-20.35-28.75-20.35h-37.42l-4.561 12.639-2.939.356v34.504h80.16c1.5.002 2.56-1.489 2.06-2.909z" fill="#99e6fc"/><path d="m273.015 328.77h15v166.238h-15z" fill="#fee45a"/><path d="m318.015 465.41 1.04.43c-7.22 6.97-12 16.46-12.92 27.07-.18 2.11-1.99 3.72-4.12 3.72h-114.18c-2.13 0-3.94-1.61-4.12-3.72-.94-10.83-5.9-20.5-13.38-27.5z" fill="#cbc4cc"/><path d="m276.512 465.409v31.22h25.503c2.13 0 3.94-1.61 4.12-3.72.92-10.61 5.7-20.1 12.92-27.07l-1.04-.43z" fill="#b5adb6"/><path d="m74.915 408.9v18.18c0 2.85-2.31 5.16-5.15 5.16h-42.67v-3c0-4.21 1.49-8.28 4.21-11.49l11.87-14.01h26.59c2.84 0 5.15 2.31 5.15 5.16z" fill="#fec165"/><path d="m469.535 465.409v-33.951c0-8.133-1.48-15.887-4.16-22.939h-18.04c-5.85 0-10.59 5.292-10.59 11.81v49.711h27.7z" fill="#fd8087"/><path d="m469.535 465.41v26.66c0 2.52-2.05 4.56-4.56 4.56h-69.47c-2.12 0-3.93-1.61-4.12-3.72-.93-10.82-5.88-20.49-13.37-27.5z" fill="#cbc4cc"/><path d="m27.095 465.41h84.74c-7.48 7-12.44 16.67-13.38 27.5-.18 2.11-1.99 3.72-4.11 3.72h-62.69c-2.52 0-4.56-2.04-4.56-4.56z" fill="#cbc4cc"/><path d="m397.795 31.08-30.9 61.73h-51.95l30.9-61.73z" fill="#f3f0f3"/><path d="m293.895 31.08-30.91 61.73h-51.95l30.91-61.73z" fill="#f3f0f3"/><path d="m128.513 71.552c-3.452 0-6.701-.848-9.574-2.323l-11.803 23.58h51.95l10.641-21.257z" fill="#e2dee2"/><path d="m221.679 71.552-10.644 21.258h51.95l10.644-21.258z" fill="#e2dee2"/><path d="m325.586 71.552-10.641 21.258h51.95l10.641-21.258z" fill="#e2dee2"/><path d="m443.455 31.079h-381.221c-5.364 0-9.712-4.348-9.712-9.712v-11.655c.001-5.364 4.349-9.712 9.712-9.712h381.221c5.364 0 9.712 4.348 9.712 9.712v11.656c0 5.363-4.348 9.711-9.712 9.711z" fill="#b5adb6"/><path d="m69.065 465.409h-41.97v26.66c0 2.52 2.04 4.56 4.56 4.56h37.514c-.163-7.211-.172-18.703-.104-31.22z" fill="#b5adb6"/></g></svg>