<svg height="512" viewBox="0 0 512 512" width="512" xmlns="http://www.w3.org/2000/svg"><g id="Filled_outline" data-name="Filled outline"><path d="m40 424h312v64h-312z" fill="#e0e0de"/><path d="m320 64v360h-256v-360a40 40 0 0 1 40-40h176a40 40 0 0 1 40 40z" fill="#348fd9"/><path d="m320 125.57v298.43h-256v-101.53c95.64-32.07 190.3-92.88 256-196.9z" fill="#3086cd"/><path d="m472 428v-148h-32v148a28 28 0 0 1 -28 28 28 28 0 0 1 -28-28v-124a48 48 0 0 0 -48-48h-16v32h16a16 16 0 0 1 16 16v124a60 60 0 0 0 60 60 60 60 0 0 0 60-60z" fill="#4d5e78"/><path d="m440 280h32v-104a16 16 0 0 0 -4.686-11.314l-11.314-11.314v-49.372h-49.372l-19.314-19.314a16 16 0 0 0 -11.314-4.686h-24v32h16s.051 22.906.064 48h49.309l22.627 22.627z" fill="#348fd9"/><path d="m440 208h-40v-48h-31.936c.007 13.8 0 44.265-.027 55.944a23.994 23.994 0 0 0 24 24.056h47.963z" fill="#e0e0de"/><path d="m320 80h32v32h-32z" fill="#e0e0de"/><path d="m104 72h176v128h-176z" fill="#4db7e5"/><g fill="#3b9dc7"><path d="m136 128h16v16h-16z"/><path d="m167.998 128h16v16h-16z"/><path d="m200 128h16v16h-16z"/><path d="m231.998 128h16v16h-16z"/></g><path d="m192 376a35.67 35.67 0 0 1 -32.32-50.75l32.32-69.25 26.53 56.83 5.79 12.42a35.669 35.669 0 0 1 -32.32 50.75z" fill="#ffb531"/><path d="m104 72h176v16h-176z" fill="#4aafdb"/><path d="m312 424h40v64h-40z" fill="#d6d6d4"/><path d="m368 160h32v16h-32z" fill="#d6d6d4"/><path d="m320 256h16v32h-16z" fill="#435269"/><path d="m192 376a35.289 35.289 0 0 1 -28.35-14.03 241.271 241.271 0 0 0 54.88-49.14l5.79 12.42a35.669 35.669 0 0 1 -32.32 50.75z" fill="#fcac1f"/><path d="m472.971 159.029-8.971-8.97v-46.059a8 8 0 0 0 -8-8h-46.059l-16.971-16.971a23.842 23.842 0 0 0 -16.97-7.029h-48v-8a48.055 48.055 0 0 0 -48-48h-176a48.055 48.055 0 0 0 -48 48v352h-16a8 8 0 0 0 -8 8v64a8 8 0 0 0 8 8h312v-16h-304v-48h272a8 8 0 0 0 8-8v-128h8a8.009 8.009 0 0 1 8 8v124a68 68 0 0 0 136 0v-252a23.846 23.846 0 0 0 -7.029-16.971zm-91.314-68.686 19.314 19.314a8 8 0 0 0 5.657 2.343h41.372v41.372a8 8 0 0 0 2.343 5.657l11.314 11.313a7.952 7.952 0 0 1 2.343 5.658v96h-16v-89.373a8 8 0 0 0 -2.343-5.656l-22.628-22.628a8 8 0 0 0 -5.656-2.343h-41.314c-.018-21.768-.059-40.018-.059-40.018a8 8 0 0 0 -8-7.982h-8v-16h16a7.948 7.948 0 0 1 5.657 2.343zm-45.657 157.657h-8v-128h32.016c.016 8.841.052 84.113.021 95.923a31.993 31.993 0 0 0 32 32.077h39.963v180a20 20 0 0 1 -40 0v-124a56.064 56.064 0 0 0 -56-56zm78.059-80 17.941 17.941v14.059h-24v-32zm-14.059 48h32v16h-39.963a15.994 15.994 0 0 1 -16-16.035c.025-9.873.032-32.712.03-47.965h15.933v40a8 8 0 0 0 8 8zm-56-128v16h-16v-16zm-272 328v-352a32.036 32.036 0 0 1 32-32h176a32.036 32.036 0 0 1 32 32v352zm392 12a52 52 0 0 1 -104 0v-124a24.027 24.027 0 0 0 -24-24h-8v-16h8a40.045 40.045 0 0 1 40 40v124a36 36 0 0 0 72 0v-140h16z"/><path d="m280 64h-176a8 8 0 0 0 -8 8v128a8 8 0 0 0 8 8h176a8 8 0 0 0 8-8v-128a8 8 0 0 0 -8-8zm-8 128h-160v-112h160z"/><path d="m136 128h16v16h-16z"/><path d="m167.998 128h16v16h-16z"/><path d="m200 128h16v16h-16z"/><path d="m231.998 128h16v16h-16z"/><path d="m155.17 363.791a43.664 43.664 0 0 0 76.4-41.92l-32.32-69.254a8 8 0 0 0 -14.5 0l-32.318 69.254a43.462 43.462 0 0 0 2.738 41.92zm11.761-35.154 25.069-53.72 25.069 53.72a27.664 27.664 0 1 1 -50.138 0z"/></g></svg>